<?xml version="1.0" encoding="utf-8"?><!-- Uploaded to: SVG Repo, www.svgrepo.com, Generator: SVG Repo Mixer Tools -->
<svg width="800px" height="800px" viewBox="0 -0.5 25 25" fill="none" xmlns="http://www.w3.org/2000/svg">
<path fill-rule="evenodd" clip-rule="evenodd" d="M5.50063 16.1407C5.46273 18.2335 7.1278 19.9613 9.22063 20.0007H15.7806C17.8735 19.9613 19.5385 18.2335 19.5006 16.1407L19.0636 11.4527C18.9527 9.68529 17.716 8.19053 16.0006 7.75065C15.6432 7.64667 15.2729 7.59348 14.9006 7.59265H10.1006C9.72837 7.59348 9.35808 7.64667 9.00063 7.75065C7.28636 8.19067 6.05026 9.68433 5.93863 11.4507L5.50063 16.1407Z" stroke="#000000" stroke-width="1.5" stroke-linecap="round" stroke-linejoin="round"/>
<path d="M16.0006 9.38862V7.36762C15.9629 5.4718 14.3965 3.96493 12.5006 4.00062C10.6047 3.96493 9.03835 5.4718 9.00061 7.36762V9.38762" stroke="#000000" stroke-width="1.5" stroke-linecap="round" stroke-linejoin="round"/>
</svg>